G04*
G04 #@! TF.GenerationSoftware,Altium Limited,Altium Designer,23.6.0 (18)*
G04*
G04 Layer_Physical_Order=1*
G04 Layer_Color=255*
%FSLAX44Y44*%
%MOMM*%
G71*
G04*
G04 #@! TF.SameCoordinates,DC424E90-4BFD-41C5-918A-45E65C1FA00B*
G04*
G04*
G04 #@! TF.FilePolarity,Positive*
G04*
G01*
G75*
%ADD13R,1.8000X2.2000*%
%ADD14R,0.3000X2.0620*%
%ADD15R,0.3000X2.2977*%
%ADD18C,1.6500*%
%ADD19R,1.6500X1.6500*%
%ADD20C,2.7620*%
%ADD21C,0.2540*%
G36*
X224312Y252785D02*
X223602Y252310D01*
X221400Y250108D01*
X219669Y247519D01*
X218478Y244642D01*
X217870Y241587D01*
Y238473D01*
X218478Y235418D01*
X219669Y232541D01*
X221400Y229952D01*
X223602Y227750D01*
X226191Y226019D01*
X229068Y224828D01*
X232123Y224220D01*
X235237D01*
X238292Y224828D01*
X241169Y226019D01*
X243758Y227750D01*
X245960Y229952D01*
X246435Y230662D01*
X247650Y230293D01*
Y30057D01*
X246435Y29688D01*
X245960Y30398D01*
X243758Y32600D01*
X241169Y34331D01*
X238292Y35522D01*
X235237Y36130D01*
X232123D01*
X229068Y35522D01*
X226191Y34331D01*
X223602Y32600D01*
X221400Y30398D01*
X219669Y27809D01*
X218478Y24932D01*
X217870Y21877D01*
Y18763D01*
X218478Y15708D01*
X219669Y12831D01*
X221400Y10242D01*
X223602Y8040D01*
X224312Y7565D01*
X223943Y6350D01*
X30057D01*
X29688Y7565D01*
X30398Y8040D01*
X32600Y10242D01*
X34331Y12831D01*
X35522Y15708D01*
X36130Y18763D01*
Y21877D01*
X35522Y24932D01*
X34331Y27809D01*
X32600Y30398D01*
X30398Y32600D01*
X27809Y34331D01*
X24932Y35522D01*
X21877Y36130D01*
X18763D01*
X15708Y35522D01*
X12831Y34331D01*
X10242Y32600D01*
X8040Y30398D01*
X7565Y29688D01*
X6350Y30057D01*
Y230293D01*
X7565Y230662D01*
X8040Y229952D01*
X10242Y227750D01*
X12831Y226019D01*
X15708Y224828D01*
X18763Y224220D01*
X21877D01*
X24932Y224828D01*
X27809Y226019D01*
X30398Y227750D01*
X32600Y229952D01*
X34331Y232541D01*
X35522Y235418D01*
X36130Y238473D01*
Y241587D01*
X35522Y244642D01*
X34331Y247519D01*
X32600Y250108D01*
X30398Y252310D01*
X29688Y252785D01*
X30057Y254000D01*
X223943D01*
X224312Y252785D01*
D02*
G37*
%LPC*%
G36*
X168190Y221930D02*
X146190D01*
Y195930D01*
X168190D01*
Y221930D01*
D02*
G37*
G36*
X100190D02*
X78190D01*
Y195930D01*
X100190D01*
Y221930D01*
D02*
G37*
G36*
X221059Y202020D02*
X220710D01*
Y192770D01*
X229960D01*
Y193119D01*
X229261Y195726D01*
X227912Y198064D01*
X226004Y199972D01*
X223666Y201322D01*
X221059Y202020D01*
D02*
G37*
G36*
X218710D02*
X218361D01*
X215754Y201322D01*
X213416Y199972D01*
X211508Y198064D01*
X210159Y195726D01*
X209460Y193119D01*
Y192770D01*
X218710D01*
Y202020D01*
D02*
G37*
G36*
X229960Y190770D02*
X220710D01*
Y181520D01*
X221059D01*
X223666Y182218D01*
X226004Y183568D01*
X227912Y185476D01*
X229261Y187814D01*
X229960Y190421D01*
Y190770D01*
D02*
G37*
G36*
X218710D02*
X209460D01*
Y190421D01*
X210159Y187814D01*
X211508Y185476D01*
X213416Y183568D01*
X215754Y182218D01*
X218361Y181520D01*
X218710D01*
Y190770D01*
D02*
G37*
G36*
X221059Y176620D02*
X218361D01*
X215754Y175921D01*
X213416Y174572D01*
X211508Y172664D01*
X210159Y170326D01*
X209970Y169622D01*
X113113D01*
X111837Y169368D01*
X110755Y168645D01*
X108562Y166452D01*
X107840Y165370D01*
X107714Y164740D01*
X107190D01*
Y142194D01*
X107181Y142150D01*
X107190Y142107D01*
Y140120D01*
X107356D01*
Y128581D01*
X106862Y128088D01*
X106140Y127006D01*
X105886Y125730D01*
Y123978D01*
X105627D01*
Y121992D01*
X105618Y121948D01*
X105626Y121911D01*
X105620Y121874D01*
X105627Y121843D01*
Y99076D01*
X105618Y99032D01*
X104665Y98655D01*
X104429Y98584D01*
X102627D01*
Y109490D01*
X95627D01*
Y98584D01*
X92627D01*
Y123978D01*
X85627D01*
Y98584D01*
X83768D01*
X82636Y99032D01*
X82627Y99076D01*
Y123978D01*
X75627D01*
Y99076D01*
X75619Y99032D01*
X75627Y98988D01*
Y97002D01*
X75793D01*
Y96907D01*
X76047Y95631D01*
X76770Y94550D01*
X78427Y92892D01*
X79509Y92170D01*
X80784Y91916D01*
X106938D01*
X108213Y92170D01*
X109295Y92893D01*
X111362Y94959D01*
X112084Y96041D01*
X112275Y97002D01*
X112627D01*
Y98988D01*
X112636Y99032D01*
X112627Y99076D01*
Y121904D01*
X112636Y121948D01*
X112627Y121990D01*
X112634Y122033D01*
X112627Y122198D01*
Y123978D01*
X113169Y125024D01*
X113770Y125924D01*
X114024Y127200D01*
Y131061D01*
X115197Y131547D01*
X121497Y125248D01*
X120971Y123978D01*
X120127D01*
Y111490D01*
X122627D01*
Y122322D01*
X123897Y122848D01*
X125628Y121117D01*
Y99076D01*
X125619Y99032D01*
X125628Y98988D01*
Y97002D01*
X125794D01*
Y95662D01*
X126047Y94387D01*
X126770Y93305D01*
X132262Y87812D01*
X133344Y87090D01*
X134620Y86836D01*
X209460D01*
Y79920D01*
X229960D01*
Y100420D01*
X209460D01*
Y93504D01*
X187509D01*
X187022Y94677D01*
X204581Y112236D01*
X209992D01*
X210159Y111614D01*
X211508Y109276D01*
X213416Y107368D01*
X215754Y106018D01*
X218361Y105320D01*
X221059D01*
X223666Y106018D01*
X226004Y107368D01*
X227912Y109276D01*
X229261Y111614D01*
X229960Y114221D01*
Y116919D01*
X229261Y119526D01*
X227912Y121864D01*
X226004Y123772D01*
X223666Y125121D01*
X221059Y125820D01*
X218361D01*
X215754Y125121D01*
X213416Y123772D01*
X211508Y121864D01*
X210159Y119526D01*
X209992Y118904D01*
X203200D01*
X201924Y118650D01*
X200842Y117928D01*
X181499Y98584D01*
X162628D01*
Y123978D01*
X155627D01*
Y98584D01*
X153841D01*
X153669Y98623D01*
X152636Y99032D01*
X152627Y99076D01*
Y123978D01*
X146893D01*
X146733Y123978D01*
X145555Y125176D01*
X145558Y125603D01*
X157591Y137636D01*
X209992D01*
X210159Y137014D01*
X211508Y134676D01*
X213416Y132768D01*
X215754Y131419D01*
X218361Y130720D01*
X221059D01*
X223666Y131419D01*
X226004Y132768D01*
X227912Y134676D01*
X229261Y137014D01*
X229960Y139621D01*
Y142319D01*
X229261Y144926D01*
X227912Y147264D01*
X226004Y149172D01*
X223666Y150521D01*
X221059Y151220D01*
X218361D01*
X215754Y150521D01*
X213416Y149172D01*
X211508Y147264D01*
X210159Y144926D01*
X209992Y144304D01*
X156210D01*
X154934Y144050D01*
X153853Y143328D01*
X139128Y128603D01*
X129254Y138476D01*
Y140120D01*
X129690D01*
Y152430D01*
X131690D01*
Y140120D01*
X139190D01*
Y162666D01*
X139199Y162710D01*
X140395Y162944D01*
X140462Y162953D01*
X210014D01*
X210159Y162414D01*
X211508Y160076D01*
X213416Y158168D01*
X215754Y156819D01*
X218361Y156120D01*
X221059D01*
X223666Y156819D01*
X226004Y158168D01*
X227912Y160076D01*
X229261Y162414D01*
X229960Y165021D01*
Y167719D01*
X229261Y170326D01*
X227912Y172664D01*
X226004Y174572D01*
X223666Y175921D01*
X221059Y176620D01*
D02*
G37*
G36*
X118127Y123978D02*
X115627D01*
Y111490D01*
X118127D01*
Y123978D01*
D02*
G37*
G36*
X102627D02*
X100127D01*
Y111490D01*
X102627D01*
Y123978D01*
D02*
G37*
G36*
X98127D02*
X95627D01*
Y111490D01*
X98127D01*
Y123978D01*
D02*
G37*
G36*
X122627Y109490D02*
X120127D01*
Y97002D01*
X122627D01*
Y109490D01*
D02*
G37*
G36*
X118127D02*
X115627D01*
Y97002D01*
X118127D01*
Y109490D01*
D02*
G37*
G36*
X72627Y123978D02*
X65627D01*
Y97002D01*
X72627D01*
Y123978D01*
D02*
G37*
G36*
X196627Y64704D02*
X174627D01*
Y38704D01*
X196627D01*
Y64704D01*
D02*
G37*
G36*
X53627D02*
X31627D01*
Y38704D01*
X53627D01*
Y64704D01*
D02*
G37*
%LPD*%
G36*
X112160Y162710D02*
X109535D01*
X109557Y162723D01*
X109576Y162765D01*
X109594Y162834D01*
X109608Y162931D01*
X109632Y163208D01*
X109649Y163831D01*
X109650Y164094D01*
X112190D01*
X112160Y162710D01*
D02*
G37*
G36*
X139618Y165018D02*
X139135Y164992D01*
X138703Y164916D01*
X138322Y164789D01*
X137992Y164611D01*
X137712Y164382D01*
X137484Y164103D01*
X137306Y163773D01*
X137179Y163392D01*
X137144Y163192D01*
X137159Y162710D01*
X137090D01*
X137078Y162477D01*
X134537D01*
X134525Y162710D01*
X134220D01*
X134281Y162735D01*
X134334Y162811D01*
X134382Y162938D01*
X134423Y163116D01*
X134452Y163302D01*
X134436Y163392D01*
X134309Y163773D01*
X134131Y164103D01*
X133903Y164382D01*
X133623Y164611D01*
X133293Y164789D01*
X132912Y164916D01*
X132480Y164992D01*
X131997Y165018D01*
X135808Y167558D01*
X139618Y165018D01*
D02*
G37*
G36*
X127165Y142125D02*
X127170Y142049D01*
X127187Y140906D01*
X127190Y139611D01*
X124650D01*
X124646Y140093D01*
X124543Y141516D01*
X124495Y141744D01*
X124439Y141922D01*
X124375Y142049D01*
X124302Y142125D01*
X124220Y142150D01*
X127159D01*
X127165Y142125D01*
D02*
G37*
G36*
X122122D02*
X122088Y142049D01*
X122058Y141922D01*
X122032Y141744D01*
X121992Y141236D01*
X121960Y139611D01*
X119420D01*
X119418Y140093D01*
X119292Y142049D01*
X119258Y142125D01*
X119221Y142150D01*
X122160D01*
X122122Y142125D01*
D02*
G37*
G36*
X117121D02*
X117088Y142049D01*
X117058Y141922D01*
X117032Y141744D01*
X116992Y141236D01*
X116960Y139611D01*
X114420D01*
X114418Y140093D01*
X114292Y142049D01*
X114258Y142125D01*
X114220Y142150D01*
X117159D01*
X117121Y142125D01*
D02*
G37*
G36*
X112122D02*
X112088Y142049D01*
X112058Y141922D01*
X112032Y141744D01*
X111992Y141236D01*
X111960Y139611D01*
X109420D01*
X109418Y140093D01*
X109292Y142049D01*
X109258Y142125D01*
X109221Y142150D01*
X112160D01*
X112122Y142125D01*
D02*
G37*
G36*
X140400Y123519D02*
X140495Y122122D01*
X140525Y122025D01*
X140559Y121967D01*
X140597Y121948D01*
X137658D01*
X137696Y121967D01*
X137730Y122025D01*
X137760Y122122D01*
X137786Y122258D01*
X137808Y122433D01*
X137840Y122898D01*
X137858Y123888D01*
X140398D01*
X140400Y123519D01*
D02*
G37*
G36*
X110597Y121948D02*
X107658D01*
X107713Y121973D01*
X107763Y122049D01*
X107807Y122176D01*
X107845Y122354D01*
X107877Y122583D01*
X107924Y123192D01*
X107950Y124488D01*
X110490D01*
X110597Y121948D01*
D02*
G37*
G36*
X110535Y99015D02*
X110480Y98964D01*
X110432Y98878D01*
X110390Y98758D01*
X110355Y98603D01*
X110326Y98415D01*
X110287Y97934D01*
X110274Y97317D01*
X107734D01*
X107658Y99032D01*
X110597D01*
X110535Y99015D01*
D02*
G37*
G36*
X80559Y99011D02*
X80525Y98947D01*
X80495Y98841D01*
X80469Y98692D01*
X80447Y98501D01*
X80405Y97672D01*
X80397Y96907D01*
X77857D01*
X77855Y97311D01*
X77759Y98841D01*
X77730Y98947D01*
X77696Y99011D01*
X77658Y99032D01*
X80597D01*
X80559Y99011D01*
D02*
G37*
G36*
X130559Y99007D02*
X130525Y98931D01*
X130495Y98804D01*
X130469Y98626D01*
X130429Y98118D01*
X130398Y96492D01*
X127858D01*
X127856Y96975D01*
X127730Y98931D01*
X127696Y99007D01*
X127658Y99032D01*
X130597D01*
X130559Y99007D01*
D02*
G37*
G36*
X150440Y99032D02*
X150597D01*
X150567Y99007D01*
X150540Y98931D01*
X150516Y98804D01*
X150496Y98626D01*
X150485Y98458D01*
X150540Y98146D01*
X150667Y97765D01*
X150845Y97434D01*
X151074Y97155D01*
X151353Y96926D01*
X151683Y96749D01*
X152064Y96622D01*
X152496Y96545D01*
X152979Y96520D01*
X149169Y93980D01*
X145359Y96520D01*
X145841Y96545D01*
X146273Y96622D01*
X146654Y96749D01*
X146984Y96926D01*
X147264Y97155D01*
X147492Y97434D01*
X147670Y97765D01*
X147797Y98146D01*
X147816Y98251D01*
X147781Y98804D01*
X147745Y98931D01*
X147704Y99007D01*
X147658Y99032D01*
X147897D01*
X147899Y99060D01*
X150439D01*
X150440Y99032D01*
D02*
G37*
G36*
X211521Y87630D02*
X211495Y87871D01*
X211418Y88087D01*
X211290Y88278D01*
X211110Y88443D01*
X210878Y88582D01*
X210596Y88697D01*
X210261Y88786D01*
X209876Y88849D01*
X209439Y88887D01*
X208951Y88900D01*
Y91440D01*
X209439Y91453D01*
X209876Y91491D01*
X210261Y91554D01*
X210596Y91643D01*
X210878Y91757D01*
X211110Y91897D01*
X211290Y92062D01*
X211418Y92253D01*
X211495Y92469D01*
X211521Y92710D01*
Y87630D01*
D02*
G37*
D13*
X89190Y208930D02*
D03*
X157190D02*
D03*
X42627Y51704D02*
D03*
X185627D02*
D03*
D14*
X110690Y152430D02*
D03*
X115690D02*
D03*
X120690D02*
D03*
X125690D02*
D03*
X130690D02*
D03*
X135690D02*
D03*
D15*
X69127Y110490D02*
D03*
X159128D02*
D03*
X149128D02*
D03*
X139128D02*
D03*
X129128D02*
D03*
X119127D02*
D03*
X109127D02*
D03*
X99127D02*
D03*
X79127D02*
D03*
X89127D02*
D03*
D18*
X219710Y191770D02*
D03*
Y166370D02*
D03*
Y140970D02*
D03*
Y115570D02*
D03*
D19*
Y90170D02*
D03*
D20*
X233680Y20320D02*
D03*
Y240030D02*
D03*
X20320D02*
D03*
Y20320D02*
D03*
D21*
X219627Y166287D02*
X219710Y166370D01*
X156210Y140970D02*
X219710D01*
X203200Y115570D02*
X219710D01*
X149169Y95250D02*
X182880D01*
X203200Y115570D01*
X129128Y95662D02*
X134620Y90170D01*
X219710D01*
X136755Y95250D02*
X149169D01*
Y110449D01*
X133898Y98107D02*
X136755Y95250D01*
X79127Y96907D02*
Y110490D01*
Y96907D02*
X80784Y95250D01*
X106938D01*
X109004Y110367D02*
X109220Y110583D01*
X109004Y97317D02*
Y110367D01*
X106938Y95250D02*
X109004Y97317D01*
X135690Y152430D02*
X135808Y152548D01*
Y166287D01*
X113113D02*
X135808D01*
X219627D01*
X110920Y164094D02*
X113113Y166287D01*
X110690Y152430D02*
X110920Y152660D01*
Y164094D01*
X139128Y110490D02*
Y123888D01*
X125920Y137095D02*
Y152200D01*
X139358Y124118D02*
X156210Y140970D01*
X125920Y137095D02*
X139128Y123888D01*
X120690Y136540D02*
X133898Y123333D01*
Y98107D02*
Y123333D01*
X120690Y136540D02*
Y152430D01*
X125690D02*
X125920Y152200D01*
X149128Y110490D02*
X149169Y110449D01*
X129128Y95662D02*
Y110490D01*
X109220Y110583D02*
Y125730D01*
X110690Y127200D02*
Y152430D01*
X109220Y125730D02*
X110690Y127200D01*
X115690Y135770D02*
X129081Y122379D01*
Y110537D02*
Y122379D01*
Y110537D02*
X129128Y110490D01*
X115690Y135770D02*
Y152430D01*
M02*
